# AST/ASF file generated using VICON BodyLanguage
# -----------------------------------------------
:version 1.10
:name VICON
:units
  mass 1.0
  length 0.45
  angle deg
:documentation
   .ast/.asf automatically generated from VICON data using
   VICON BodyBuilder and BodyLanguage model FoxedUp or BRILLIANT.MOD
:root
   order TX TY TZ RX RY RZ
   axis XYZ
   position 0 0 0  
   orientation 0 0 0 
:bonedata
  begin
     id 1 
     name lhipjoint
     direction 0.576517 -0.752066 0.319413 
     length 2.45433 
     axis 0 0 0  XYZ
  end
  begin
     id 2 
     name lfemur
     direction 0.34202 -0.939693 0  
     length 7.54459  
     axis 0 0 20  XYZ
    dof rx ry rz
    limits (-160.0 20.0)
           (-70.0 70.0)
           (-60.0 70.0)
  end
  begin
     id 3 
     name ltibia
     direction 0.34202 -0.939693 0   
     length 7.73986   
     axis 0 0 20   XYZ
    dof rx
    limits (-10.0 170.0)
  end
  begin
     id 4 
     name lfoot
     direction 0.090693 -0.249177 0.964202   
     length 2.28437   
     axis -90 7.62852e-016 20   XYZ
    dof rx rz
    limits (-45.0 90.0)
           (-70.0 20.0)
  end
  begin
     id 5 
     name ltoes
     direction 1.5356e-011 -4.21928e-011 1   
     length 1.14243   
     axis -90 7.62852e-016 20   XYZ
    dof rx
    limits (-90.0 20.0)
  end
  begin
     id 6 
     name rhipjoint
     direction -0.573937 -0.753736 0.320122   
     length 2.44889  
     axis 0 0 0  XYZ 
  end
  begin
     id 7 
     name rfemur
     direction -0.34202 -0.939693 0   
     length 7.50166   
     axis 0 0 -20   XYZ
    dof rx ry rz
    limits (-160.0 20.0)
           (-70.0 70.0)
           (-70.0 60.0)
  end
  begin
     id 8 
     name rtibia
     direction -0.34202 -0.939693 0   
     length 7.54266   
     axis 0 0 -20   XYZ
    dof rx
    limits (-10.0 170.0)
 end
 begin
     id 9 
     name rfoot
     direction -0.114017 -0.31326 0.942798   
     length 2.34212  
     axis -90 -7.62852e-016 -20   XYZ
    dof rx rz
    limits (-45.0 90.0)
           (-20.0 70.0)
  end
  begin
     id 10 
     name rtoes
     direction -1.53557e-011 -4.21867e-011 1   
     length 1.16246   
     axis -90 -7.62852e-016 -20   XYZ
    dof rx
    limits (-90.0 20.0)
  end
  begin
     id 11 
     name lowerback
     direction -0.0228371 0.999155 -0.034167   
     length 2.0537   
     axis 0 0 0   XYZ
    dof rx ry rz
    limits (-20.0 45.0)
           (-30.0 30.0)
           (-30.0 30.0)
  end
  begin
     id 12 
     name upperback
     direction 0.0198981 0.999794 0.00389455   
     length 2.05302   
     axis 0 0 0   XYZ
    dof rx ry rz
    limits (-20.0 45.0)
           (-30.0 30.0)
           (-30.0 30.0)
  end
  begin
     id 13 
     name thorax
     direction 0.0304566 0.99935 0.0192987   
     length 2.05315   
     axis 0 0 0   XYZ
    dof rx ry rz
    limits (-20.0 45.0)
           (-30.0 30.0)
           (-30.0 30.0)
  end
  begin
     id 14 
     name lowerneck
     direction -0.0196762 0.99417 0.106017   
     length 1.82056   
     axis 0 0 0   XYZ
    dof rx ry rz
    limits (-20.0 45.0)
           (-30.0 30.0)
           (-30.0 30.0)
  end
  begin
     id 15 
     name upperneck
     direction 0.00517787 0.9802 -0.197944   
     length 1.83835   
     axis 0 0 0   XYZ
    dof rx ry rz
    limits (-20.0 45.0)
           (-30.0 30.0)
           (-30.0 30.0)
  end
  begin
     id 16
     name head
     direction 0.00211419 0.996945 -0.078081  
     length 1.85629  
     axis 0 0 0   XYZ
    dof rx ry rz
    limits (-20.0 45.0)
           (-30.0 30.0)
           (-30.0 30.0)
  end
  begin
     id 17 
     name lclavicle
     direction 0.930001 0.365811 -0.0357824  
     length 3.81961  
     axis 0 0 0   XYZ
    dof ry rz
    limits (-20.0 10.0)
           (0.0 20.0)
  end
  begin
     id 18 
     name lhumerus
     direction 1 -4.48968e-011 -3.06644e-027   
     length 5.14507   
     axis 180 -30 -90   XYZ
    dof rx ry rz
    limits (-60.0 90.0)
           (-90.0 90.0)
           (-90.0 90.0)
  end
  begin
     id 19
     name lradius
     direction 1 -4.48965e-011 9.06925e-028   
     length 3.50646   
     axis 180 -30 -90   XYZ
    dof rx
    limits (-10.0 170.0)
  end
  begin
     id 20
     name lwrist
     direction 1 -4.48957e-011 1.03922e-027   
     length 1.75323   
     axis -2.56395e-016 90 90   XYZ
    dof ry
    limits (-180.0 0.0)
 end
  begin
     id 21 
     name lhand
     direction 1 -4.48967e-011 2.08017e-027   
     length 0.629969   
     axis -1.32723e-015 90 90   XYZ
    dof rx rz
    limits (-90.0 90.0)
           (-45.0 45.0)
  end
  begin
     id 22 
     name lfingers
     direction 1 -4.49089e-011 4.20095e-027   
     length 0.507897   
     axis -2.6545e-015 90 90   XYZ
    dof rx
    limits (0.0 90.0)
  end
  begin
     id 23
     name lthumb
     direction 0.707107 -6.35001e-011 0.707107   
     length 0.729241   
     axis -90 45 5.05613e-014   XYZ
    dof rx rz
    limits (-45.0 45.0)
           (-45.0 45.0)
  end
  begin
     id 24 
     name rclavicle
     direction -0.881882 0.464123 -0.0829113   
     length 3.47515  
     axis 0 0 0   XYZ 
    dof ry rz
    limits (-10.0 20.0)
           (-20.0 0.0)
  end
  begin
     id 25 
     name rhumerus
     direction -1 -4.48961e-011 -1.55672e-027  
     length 5.232   
     axis 180 30 90   XYZ
    dof rx ry rz
    limits (-90.0 60.0)
           (-90.0 90.0)
           (-90.0 90.0)
  end
  begin
     id 26 
     name rradius
     direction -1 -4.48963e-011 6.18178e-029   
     length 3.65641   
     axis 180 30 90   XYZ
    dof rx
    limits (-10.0 170.0)
  end
  begin
     id 27 
     name rwrist
     direction -1 -4.48982e-011 1.04136e-027   
     length 1.8282   
     axis -2.56395e-016 -90 -90   XYZ
    dof ry
    limits (-180.0 0.0)
  end
  begin
     id 28
     name rhand
     direction -1 -4.48929e-011 2.07378e-027   
     length 0.656807   
     axis -1.32723e-015 -90 -90   XYZ
    dof rx rz
    limits (-90.0 90.0)
           (-45.0 45.0)
  end
  begin
     id 29
     name rfingers
     direction -1 -4.489e-011 4.13816e-027   
     length 0.529535   
     axis -2.6545e-015 -90 -90   XYZ
    dof rx
    limits (0.0 90.0)
  end
  begin
     id 30
     name rthumb
     direction -0.707107 -6.34843e-011 0.707107   
     length 0.760309   
     axis -90 -45 -5.05613e-014   XYZ
    dof rx rz
    limits (-45.0 45.0)
           (-45.0 45.0)
  end
:hierarchy
  begin
    root lhipjoint rhipjoint lowerback
    lhipjoint lfemur
    lfemur ltibia
    ltibia lfoot
    lfoot ltoes
    rhipjoint rfemur
    rfemur rtibia
    rtibia rfoot
    rfoot rtoes
    lowerback upperback
    upperback thorax
    thorax lowerneck lclavicle rclavicle
    lowerneck upperneck
    upperneck head
    lclavicle lhumerus
    lhumerus lradius
    lradius lwrist
    lwrist lhand lthumb
    lhand lfingers
    rclavicle rhumerus
    rhumerus rradius
    rradius rwrist
    rwrist rhand rthumb
    rhand rfingers
  end

#!OML:ASF H:\ManfredETheater\Project 1\Capture day 1\Session 1\subject.ASF
:FULLY-SPECIFIED
:DEGREES
47
root 2.05993 15.635 13.4786 -157.796 4.4512 -186.284
lowerback 20.1487 -0.651051 -4.29518
upperback 0.283267 -1.56039 0.964474
thorax -10.8776 -0.392038 3.9594
lowerneck -21.1437 -1.15218 -4.75484
upperneck -4.91271 0.908918 -0.448791
head 2.00817 1.06343 0.784189
rclavicle 3.4191e-014 1.19271e-014
rhumerus -62.2041 0.883561 -79.0264
rradius 72.2556
rwrist -16.7109
rhand -31.7157 9.3375
rfingers 7.12502
rthumb -4.97423 -20.5841
lclavicle 3.4191e-014 1.19271e-014
lhumerus -26.3325 -14.3009 93.7514
lradius 118.235
lwrist 15.3267
lhand -23.2945 -10.9135
lfingers 7.12502
lthumb 3.15874 19.0428
rfemur -70.7419 -7.98223 23.7188
rtibia 70.0151
rfoot -16.4768 -6.68567
rtoes -22.4994
lfemur -6.88172 -5.51526 -31.6586
ltibia 62.5531
lfoot 29.3684 -6.1852
ltoes 14.4818
48
root 2.1028 15.647 12.8584 -158.136 4.42841 -185.156
lowerback 20.679 -0.495574 -3.45323
upperback 0.485125 -1.11002 1.28003
thorax -10.9996 -0.203465 3.70684
lowerneck -20.983 -1.21415 -4.61533
upperneck -5.3504 0.831078 -0.533387
head 1.829 1.05187 0.719468
rclavicle 1.66979e-014 -3.18055e-015
rhumerus -59.0317 0.719511 -79.7751
rradius 71.4358
rwrist -16.9232
rhand -31.7634 9.04671
rfingers 7.12502
rthumb -5.02026 -20.8738
lclavicle 1.66979e-014 -3.18055e-015
lhumerus -28.3718 -13.228 94.145
lradius 113.626
lwrist 16.9879
lhand -23.4073 -10.6774
lfingers 7.12502
lthumb 3.04978 19.2805
rfemur -67.9235 -7.81585 24.9347
rtibia 70.6549
rfoot -18.334 -8.22482
rtoes -22.4851
lfemur -9.70783 -4.51347 -30.2391
ltibia 67.8565
lfoot 28.0282 -5.88457
ltoes 15.9827
49
root 2.14893 15.677 12.2336 -158.419 4.35072 -183.788
lowerback 21.2052 -0.361906 -2.40434
upperback 0.649524 -0.617188 1.658
thorax -11.1582 -0.0012919 3.38646
lowerneck -20.8556 -1.26232 -4.44627
upperneck -5.6805 0.757475 -0.641288
head 1.69353 1.03356 0.644191
rclavicle -1.55052e-014 4.05521e-014
rhumerus -55.843 0.773333 -80.6091
rradius 70.7844
rwrist -16.9585
rhand -31.755 8.7748
rfingers 7.12502
rthumb -5.0122 -21.1459
lclavicle -1.55052e-014 4.05521e-014
lhumerus -30.2242 -12.0899 94.3446
lradius 108.725
lwrist 18.4988
lhand -23.5365 -10.6912
lfingers 7.12502
lthumb 2.92496 19.2685
rfemur -64.7918 -7.46864 26.203
rtibia 71.0429
rfoot -20.3745 -9.85084
rtoes -23.8776
lfemur -12.7269 -3.4718 -28.4587
ltibia 73.0269
lfoot 26.4226 -5.78729
ltoes 18.0155
50
root 2.19612 15.6808 11.6196 -158.6 4.21876 -182.293
lowerback 21.6867 -0.262094 -1.23016
upperback 0.753044 -0.118146 2.06852
thorax -11.3505 0.199417 3.02234
lowerneck -20.7977 -1.28944 -4.24845
upperneck -5.86559 0.698108 -0.783343
head 1.62019 1.01113 0.556281
rclavicle -1.03368e-014 -3.18055e-014
rhumerus -52.6823 1.07838 -81.5142
rradius 70.3807
rwrist -16.7963
rhand -31.6773 8.53612
rfingers 7.12502
rthumb -4.93713 -21.3864
lclavicle -1.03368e-014 -3.18055e-014
lhumerus -31.935 -10.9466 94.3542
lradius 103.608
lwrist 19.4152
lhand -23.7564 -11.0013
lfingers 7.12502
lthumb 2.71258 18.9612
rfemur -61.736 -6.9536 27.4663
rtibia 71.3307
rfoot -22.3526 -11.4347
rtoes -26.1604
lfemur -16.0546 -2.4208 -26.4602
ltibia 78.1612
lfoot 24.3201 -5.74426
ltoes 19.7695
51
root 2.24472 15.6798 11.0084 -158.643 4.05223 -180.808
lowerback 22.0626 -0.194958 -0.0493949
upperback 0.783251 0.351628 2.47294
thorax -11.5537 0.384245 2.65162
lowerneck -20.8209 -1.29052 -4.02086
upperneck -5.89904 0.659499 -0.962804
head 1.61281 0.987375 0.454828
rclavicle 1.23246e-014 -1.90833e-014
rhumerus -49.5869 1.64507 -82.477
rradius 70.3155
rwrist -16.4757
rhand -31.5344 8.31225
rfingers 7.12502
rthumb -4.79921 -21.6134
lclavicle 1.23246e-014 -1.90833e-014
lhumerus -33.5947 -9.86445 94.1902
lradius 98.4553
lwrist 19.3979
lhand -24.1097 -11.5002
lfingers 7.12502
lthumb 2.37142 18.4664
rfemur -58.7272 -6.3578 28.6363
rtibia 71.4252
rfoot -24.2717 -12.9017
rtoes -29.1328
lfemur -19.6955 -1.37729 -24.4039
ltibia 83.0897
lfoot 21.7564 -5.66557
ltoes 20.8668
52
root 2.29435 15.673 10.3993 -158.536 3.86653 -179.46
lowerback 22.3026 -0.156866 1.02255
upperback 0.734694 0.754338 2.83432
thorax -11.7579 0.537865 2.31405
lowerneck -20.932 -1.25849 -3.76033
upperneck -5.78269 0.650409 -1.16987
head 1.67201 0.966997 0.342719
rclavicle -2.38542e-015 -7.95139e-015
rhumerus -46.6088 2.47125 -83.4956
rradius 70.6954
rwrist -16.0979
rhand -31.3344 8.09073
rfingers 7.12502
rthumb -4.60603 -21.8392
lclavicle -2.38542e-015 -7.95139e-015
lhumerus -35.3388 -8.91306 93.8785
lradius 93.5479
lwrist 18.3465
lhand -24.5628 -12.0506
lfingers 7.12502
lthumb 1.93384 17.9204
rfemur -55.8392 -5.7741 29.6394
rtibia 71.3879
rfoot -25.879 -14.1293
rtoes -31.5897
lfemur -23.6678 -0.367967 -22.4745
ltibia 87.7608
lfoot 18.9242 -5.47029
ltoes 21.6256
53
root 2.34469 15.6597 9.79109 -158.281 3.68545 -178.351
lowerback 22.381 -0.136004 1.88255
upperback 0.607127 1.06333 3.12349
thorax -11.9531 0.650205 2.04737
lowerneck -21.1276 -1.18907 -3.46861
upperneck -5.5291 0.676545 -1.38277
head 1.7935 0.954216 0.227166
rclavicle 1.03368e-014 3.26007e-014
rhumerus -43.799 3.53109 -84.5693
rradius 71.6081
rwrist -15.8044
rhand -31.1011 7.91395
rfingers 7.12502
rthumb -4.38076 -22.0207
lclavicle 1.03368e-014 3.26007e-014
lhumerus -37.3285 -8.16044 93.4621
lradius 89.2458
lwrist 16.5241
lhand -25.0659 -12.5788
lfingers 7.12502
lthumb 1.44792 17.3961
rfemur -53.1039 -5.28392 30.4135
rtibia 71.2132
rfoot -27.3533 -15.1018
rtoes -33.9278
lfemur -27.971 0.583442 -20.8368
ltibia 92.0747
lfoot 15.9369 -5.10676
ltoes 22.1038
